<svg width="78" height="97" viewBox="0 0 78 97" fill="none" xmlns="http://www.w3.org/2000/svg">
<path d="M31.625 97H0.546875V1H32.6094C42.0156 1 50.0937 2.92188 56.8438 6.76563C63.5938 10.5781 68.7656 16.0625 72.3594 23.2188C75.9844 30.3438 77.7969 38.8906 77.7969 48.8594C77.7969 58.8594 75.9688 67.4531 72.3125 74.6406C68.6875 81.8281 63.4375 87.3594 56.5625 91.2344C49.6875 95.0781 41.375 97 31.625 97ZM15.0312 84.3438H30.8281C38.1406 84.3438 44.2188 82.9688 49.0625 80.2188C53.9063 77.4375 57.5312 73.4219 59.9375 68.1719C62.3438 62.8906 63.5469 56.4531 63.5469 48.8594C63.5469 41.3281 62.3438 34.9375 59.9375 29.6875C57.5625 24.4375 54.0156 20.4531 49.2969 17.7344C44.5781 15.0156 38.7188 13.6563 31.7188 13.6563H15.0312V84.3438Z" fill="#CDAE25"/>
<path d="M34.28 96.68C30.1733 96.68 26.3333 96.3067 22.76 95.56C19.24 94.8667 16.28 93.9333 13.88 92.76C11.48 91.5867 9.50667 90.4667 7.96 89.4C6.46667 88.3333 5.21333 87.2667 4.2 86.2L6.2 66.76C8.38667 69.6933 11.32 72.2533 15 74.44C18.68 76.5733 22.6533 77.64 26.92 77.64C31.1867 77.64 34.2533 77.1867 36.12 76.28C38.04 75.3733 39 73.72 39 71.32C39 68.76 37.9067 66.5733 35.72 64.76C33.5867 62.9467 29.88 60.76 24.6 58.2C22.68 57.24 21.0533 56.3867 19.72 55.64C18.3867 54.84 16.6 53.56 14.36 51.8C12.1733 49.9867 10.3867 48.12 9 46.2C7.61333 44.2267 6.38667 41.72 5.32 38.68C4.25333 35.5867 3.72 32.28 3.72 28.76C3.72 9.72001 14.4667 0.200012 35.96 0.200012C39.3733 0.200012 42.5733 0.573345 45.56 1.32001C48.6 2.01334 50.9733 2.78667 52.68 3.64001C54.3867 4.49334 55.9333 5.50667 57.32 6.68001C58.76 7.80001 59.6667 8.60001 60.04 9.08001C60.4133 9.50667 60.68 9.85334 60.84 10.12L56.84 25.56C54.76 23.1067 52.1467 21.2933 49 20.12C45.9067 18.8933 42.9467 18.28 40.12 18.28C33.2933 18.28 29.88 20.4133 29.88 24.68C29.88 25.8 30.0933 26.8133 30.52 27.72C30.9467 28.6267 31.64 29.4533 32.6 30.2C33.56 30.9467 34.44 31.5867 35.24 32.12C36.0933 32.6533 37.24 33.32 38.68 34.12C40.1733 34.8667 41.2933 35.48 42.04 35.96C49.8267 39.2667 55.5333 43.1867 59.16 47.72C62.84 52.2533 64.68 57.7733 64.68 64.28C64.68 74.84 62.0667 82.8933 56.84 88.44C51.6667 93.9333 44.1467 96.68 34.28 96.68Z" fill="#8D25CD"/>
</svg>
